<?xml version="1.0" encoding="UTF-8" standalone="no" ?>
<!DOCTYPE svg PUBLIC "-//W3C//DTD SVG 1.1//EN" "http://www.w3.org/Graphics/SVG/1.1/DTD/svg11.dtd">
<svg xmlns="http://www.w3.org/2000/svg" xmlns:xlink="http://www.w3.org/1999/xlink" version="1.1" width="500" height="500" viewBox="0 0 500 500" xml:space="preserve">
<desc>Created with Fabric.js 3.6.3</desc>
<defs>
</defs>
<g transform="matrix(0.1727206922268923 0.026373675678447218 -0.02637367567844722 0.17272069222689232 156 251)"  >
<path style="stroke: none; stroke-width: 0; stroke-dasharray: none; stroke-linecap: round; stroke-dashoffset: 0; stroke-linejoin: round; stroke-miterlimit: 4; fill: rgb(166,166,166); fill-rule: nonzero; opacity: 0.3;"  transform=" translate(-347.214464, -408.15557)" d="m 239.32338 158.15557 c -78.60067 0 -142.108912 63.50635 -142.108912 142.10701 l 0 215.78407 c 0 78.60067 63.508242 142.10892 142.108912 142.10892 l 215.78217 0 c 78.60067 0 142.10891 -63.50825 142.10891 -142.10892 l 0 -215.78407 c 0 -78.60066 -63.50824 -142.10701 -142.10891 -142.10701 l -215.78217 0 z" stroke-linecap="round" />
</g>
<g transform="matrix(0.15964033602597255 -3.91e-17 3.91e-17 0.15964033602597255 156 251.00000000000006)"  >
<linearGradient id="SVGID_27685" gradientUnits="userSpaceOnUse" gradientTransform="matrix(1 0 0 1 97.21446800000001 158.15556999999998)"  x1="0" y1="0" x2="499.999992" y2="500.00000000000006">
<stop offset="0%" style="stop-color:rgb(125,20,29);stop-opacity: 1"/>
<stop offset="100%" style="stop-color:rgb(255,30,39);stop-opacity: 1"/>
</linearGradient>
<path style="stroke: none; stroke-width: 0; stroke-dasharray: none; stroke-linecap: round; stroke-dashoffset: 0; stroke-linejoin: round; stroke-miterlimit: 4; fill: url(#SVGID_27685); fill-rule: nonzero; opacity: 1;"  transform=" translate(-347.214464, -408.15557)" d="m 239.32338 158.15557 c -78.60067 0 -142.108912 63.50635 -142.108912 142.10701 l 0 215.78407 c 0 78.60067 63.508242 142.10892 142.108912 142.10892 l 215.78217 0 c 78.60067 0 142.10891 -63.50825 142.10891 -142.10892 l 0 -215.78407 c 0 -78.60066 -63.50824 -142.10701 -142.10891 -142.10701 l -215.78217 0 z" stroke-linecap="round" />
</g>
<g transform="matrix(1.1065917028861938 0 0 1.1065917028861938 156 250)"  >
<g style=""   >
		<g transform="matrix(1 0 0 1 -21 0)"  >
<path style="stroke: none; stroke-width: 1; stroke-dasharray: none; stroke-linecap: butt; stroke-dashoffset: 0; stroke-linejoin: miter; stroke-miterlimit: 4; fill: rgb(255,255,255); fill-rule: nonzero; opacity: 1;"  transform=" translate(-11, -32)" d="M 20 53 C 20 54.1046 19.1046 55 18 55 H 17 C 11.4772 55 7 50.5228 7 45 V 38.2814 C 7 37.7145 6.75936 37.1741 6.33793 36.7949 L 2.66207 33.4866 C 2.24064 33.1073 2 32.567 2 32 C 2 31.433 2.24064 30.8927 2.66207 30.5134 L 6.33793 27.2051 C 6.75936 26.8259 7 26.2855 7 25.7185 V 19 C 7 13.4772 11.4772 9 17 9 H 18 C 19.1046 9 20 9.89543 20 11 C 20 12.1046 19.1046 13 18 13 H 17 C 13.6863 13 11 15.6863 11 19 V 25.7185 C 11 27.4195 10.2781 29.0405 9.01379 30.1783 L 6.98969 32 L 9.01379 33.8217 C 10.2781 34.9595 11 36.5805 11 38.2814 V 45 C 11 48.3137 13.6863 51 17 51 H 18 C 19.1046 51 20 51.8954 20 53 Z" stroke-linecap="round" />
</g>
		<g transform="matrix(1 0 0 1 21 0)"  >
<path style="stroke: none; stroke-width: 1; stroke-dasharray: none; stroke-linecap: butt; stroke-dashoffset: 0; stroke-linejoin: miter; stroke-miterlimit: 4; fill: rgb(255,255,255); fill-rule: nonzero; opacity: 1;"  transform=" translate(-53, -32)" d="M 44 53 C 44 54.1046 44.8954 55 46 55 H 47 C 52.5228 55 57 50.5228 57 45 V 38.2814 C 57 37.7145 57.2406 37.1741 57.6621 36.7949 L 61.3379 33.4866 C 61.7594 33.1073 62 32.567 62 32 C 62 31.433 61.7594 30.8927 61.3379 30.5134 L 57.6621 27.2051 C 57.2406 26.8259 57 26.2855 57 25.7185 V 19 C 57 13.4772 52.5228 9 47 9 H 46 C 44.8954 9 44 9.89543 44 11 C 44 12.1046 44.8954 13 46 13 H 47 C 50.3137 13 53 15.6863 53 19 V 25.7185 C 53 27.4195 53.7219 29.0405 54.9862 30.1783 L 57.0103 32 L 54.9862 33.8217 C 53.7219 34.9595 53 36.5805 53 38.2814 V 45 C 53 48.3137 50.3137 51 47 51 H 46 C 44.8954 51 44 51.8954 44 53 Z" stroke-linecap="round" />
</g>
		<g transform="matrix(1 0 0 1 -10 0)"  >
<path style="stroke: none; stroke-width: 1; stroke-dasharray: none; stroke-linecap: butt; stroke-dashoffset: 0; stroke-linejoin: miter; stroke-miterlimit: 4; fill: rgb(255,255,255); fill-rule: nonzero; opacity: 1;"  transform=" translate(-22, -32)" d="M 22 34 C 23.1046 34 24 33.1046 24 32 C 24 30.8954 23.1046 30 22 30 C 20.8954 30 20 30.8954 20 32 C 20 33.1046 20.8954 34 22 34 Z" stroke-linecap="round" />
</g>
		<g transform="matrix(1 0 0 1 0 0)"  >
<path style="stroke: none; stroke-width: 1; stroke-dasharray: none; stroke-linecap: butt; stroke-dashoffset: 0; stroke-linejoin: miter; stroke-miterlimit: 4; fill: rgb(255,255,255); fill-rule: nonzero; opacity: 1;"  transform=" translate(-32, -32)" d="M 32 34 C 33.1046 34 34 33.1046 34 32 C 34 30.8954 33.1046 30 32 30 C 30.8954 30 30 30.8954 30 32 C 30 33.1046 30.8954 34 32 34 Z" stroke-linecap="round" />
</g>
		<g transform="matrix(1 0 0 1 10 0)"  >
<path style="stroke: none; stroke-width: 1; stroke-dasharray: none; stroke-linecap: butt; stroke-dashoffset: 0; stroke-linejoin: miter; stroke-miterlimit: 4; fill: rgb(255,255,255); fill-rule: nonzero; opacity: 1;"  transform=" translate(-42, -32)" d="M 44 32 C 44 33.1046 43.1046 34 42 34 C 40.8954 34 40 33.1046 40 32 C 40 30.8954 40.8954 30 42 30 C 43.1046 30 44 30.8954 44 32 Z" stroke-linecap="round" />
</g>
</g>
</g>
<g transform="matrix(1 0 0 1 330.56885944761484 250.25)" style=""  ><path fill="#000000" opacity="1" d="M-109.29-1.95L-109.29-13.77L-89.75-13.77L-89.75-1.95ZM-109.29 17.59L-109.29 5.89L-85.83 5.89L-81.96 1.97L-81.96-17.63L-85.83-21.61L-117.13-21.61L-117.13 17.59Z"/><path fill="#000000" opacity="1" d="M-69.64-1.95L-69.64-5.87L-61.86-13.77L-50.10-13.77L-50.10-1.95ZM-69.64 17.59L-69.64 5.89L-50.10 5.89L-50.10 17.59L-42.32 17.59L-42.32-21.61L-65.78-21.61L-77.48-9.79L-77.48 17.59Z"/><path fill="url(#CUSTOM_SVGID_21)" opacity="1" d="M-1.55-9.85L-13.25-21.61L-36.72-21.61L-36.72 17.59L-5.41 17.59L-1.55 13.73ZM-9.33 9.75L-28.88 9.75L-28.88-13.77L-17.17-13.77L-9.33-5.93Z"/>
    <linearGradient id="CUSTOM_SVGID_21" gradientUnits="userSpaceOnUse" gradientTransform="matrix(1 0 0 1 -119.9311404283676 -31.64)"  x1="0" y1="0" x2="239.8622808567352" y2="63.28">
      <stop  offset="0" style="stop-color:#7d141d;stop-opacity:undefined"/><stop  offset="1" style="stop-color:#ff1e27;stop-opacity:undefined"/>
    </linearGradient>
  <path fill="url(#CUSTOM_SVGID_22)" opacity="1" d="M36.76 17.59L36.76 9.75L11.33 9.75L11.33 1.97L34.80 1.97L34.80-5.87L11.33-5.87L11.33-13.77L36.76-13.77L36.76-21.61L3.49-21.61L3.49 17.59Z"/>
    <linearGradient id="CUSTOM_SVGID_22" gradientUnits="userSpaceOnUse" gradientTransform="matrix(1 0 0 1 -119.9311404283676 -31.64)"  x1="0" y1="0" x2="239.8622808567352" y2="63.28">
      <stop  offset="0" style="stop-color:#7d141d;stop-opacity:undefined"/><stop  offset="1" style="stop-color:#ff1e27;stop-opacity:undefined"/>
    </linearGradient>
  <path fill="url(#CUSTOM_SVGID_23)" opacity="1" d="M60.78 9.75L56.86 9.75L49.08 1.97L49.08-21.61L41.24-21.61L41.24 5.89L52.94 17.59L64.70 17.59L76.40 5.89L76.40-21.61L68.62-21.61L68.62 1.97Z"/>
    <linearGradient id="CUSTOM_SVGID_23" gradientUnits="userSpaceOnUse" gradientTransform="matrix(1 0 0 1 -119.9311404283676 -31.64)"  x1="0" y1="0" x2="239.8622808567352" y2="63.28">
      <stop  offset="0" style="stop-color:#7d141d;stop-opacity:undefined"/><stop  offset="1" style="stop-color:#ff1e27;stop-opacity:undefined"/>
    </linearGradient>
  <path fill="url(#CUSTOM_SVGID_24)" opacity="1" d="M112.75 17.59L116.61 13.73L116.61-2.01L112.75-5.93L89.28-5.93L89.28-13.77L108.83-13.77L108.83-9.85L116.61-9.85L116.61-17.63L112.75-21.61L85.31-21.61L81.44-17.63L81.44-0.83L85.31 1.97L108.83 1.97L108.83 9.75L89.28 9.75L89.28 5.89L81.44 5.89L81.44 13.73L85.31 17.59Z"/>
    <linearGradient id="CUSTOM_SVGID_24" gradientUnits="userSpaceOnUse" gradientTransform="matrix(1 0 0 1 -119.9311404283676 -31.64)"  x1="0" y1="0" x2="239.8622808567352" y2="63.28">
      <stop  offset="0" style="stop-color:#7d141d;stop-opacity:undefined"/><stop  offset="1" style="stop-color:#ff1e27;stop-opacity:undefined"/>
    </linearGradient>
  </g><g transform="matrix(1 0 0 1 304.7009701503056 286.36225)" style=""  ><path fill="#000000" opacity="1" d="M-75.49 9.31L-75.49 4.16L-83.79-1.03L-75.49-6.22L-75.49-11.41L-92.06-1.03Z"/><path fill="#000000" opacity="1" d="M-55.95 9.31L-53.90 7.27L-53.90-1.06L-55.95-3.14L-68.37-3.14L-68.37-7.29L-58.03-7.29L-58.03-5.21L-53.90-5.21L-53.90-9.34L-55.95-11.44L-70.48-11.44L-72.52-9.34L-72.52-0.44L-70.48 1.04L-58.03 1.04L-58.03 5.16L-68.37 5.16L-68.37 3.12L-72.52 3.12L-72.52 7.27L-70.48 9.31Z"/><path fill="#000000" opacity="1" d="M-34.36 9.31L-32.32 7.27L-32.32 3.12L-36.44 3.12L-36.44 5.16L-46.79 5.16L-46.79-7.29L-36.44-7.29L-36.44-5.21L-32.32-5.21L-32.32-9.34L-34.36-11.44L-48.89-11.44L-50.94-9.34L-50.94 7.27L-48.89 9.31Z"/><path fill="#000000" opacity="1" d="M-25.50 9.31L-25.50 1.04L-15.15 1.04L-15.15 9.31L-11.03 9.31L-11.03-11.44L-15.15-11.44L-15.15-3.11L-25.50-3.11L-25.50-11.44L-29.65-11.44L-29.65 9.31Z"/><path fill="#000000" opacity="1" d="M-3.91 5.16L-3.91-7.29L6.43-7.29L6.43 5.16ZM8.51 9.31L10.56 7.27L10.56-9.34L8.51-11.44L-6.02-11.44L-8.06-9.34L-8.06 7.27L-6.02 9.31Z"/><path fill="#000000" opacity="1" d="M17.67 5.16L17.67-7.29L28.02-7.29L28.02 5.16ZM30.09 9.31L32.14 7.27L32.14-9.34L30.09-11.44L15.57-11.44L13.52-9.34L13.52 7.27L15.57 9.31Z"/><path fill="#000000" opacity="1" d="M35.11-11.44L35.11 9.31L52.72 9.31L52.72 5.16L39.26 5.16L39.26-11.44Z"/><path fill="#000000" opacity="1" d="M71.37-1.03L54.79-11.41L54.79-6.22L63.07-1.03L54.79 4.16L54.79 9.31Z"/></g></svg>